HIERARCHY
ROOT Hips
{
	OFFSET 0.000000 0.000000 0.000000
	CHANNELS 6 Xposition Yposition Zposition Zrotation Yrotation Xrotation 
	JOINT LeftUpLeg_virtual
	{
		OFFSET 0.000000 0.000000 0.000000
		CHANNELS 3 Zrotation Yrotation Xrotation
		JOINT LeftUpLeg
		{
			OFFSET 8.479694 -4.795517 -0.379053
			CHANNELS 3 Zrotation Yrotation Xrotation
			JOINT LeftLeg
			{
				OFFSET 0.485052 -32.551468 0.112863
				CHANNELS 3 Zrotation Yrotation Xrotation
				JOINT LeftFoot
				{
					OFFSET 0.438033 -32.635670 -3.012641
					CHANNELS 3 Zrotation Yrotation Xrotation
					JOINT LeftToeBase
					{
						OFFSET 0.970169 -13.225353 11.864223
						CHANNELS 3 Zrotation Yrotation Xrotation
						End Site
						{
							OFFSET 0.000000 0.000000 0.000000
						}
					}
				}
			}
		}
	}
	JOINT RightUpLeg_virtual
	{
		OFFSET 0.000000 0.000000 0.000000
		CHANNELS 3 Zrotation Yrotation Xrotation
		JOINT RightUpLeg
		{
			OFFSET -8.479694 -4.795517 -0.379053
			CHANNELS 3 Zrotation Yrotation Xrotation
			JOINT RightLeg
			{
				OFFSET -0.484100 -32.551483 0.112903
				CHANNELS 3 Zrotation Yrotation Xrotation
				JOINT RightFoot
				{
					OFFSET -0.438985 -32.635651 -3.012681
					CHANNELS 3 Zrotation Yrotation Xrotation
					JOINT RightToeBase
					{
						OFFSET -0.970169 -13.225354 11.864223
						CHANNELS 3 Zrotation Yrotation Xrotation
						End Site
						{
							OFFSET 0.000000 0.000000 0.000000
						}
					}
				}
			}
		}
	}
	JOINT Spine_virtual
	{
		OFFSET 0.000000 0.000000 0.000000
		CHANNELS 3 Zrotation Yrotation Xrotation
		JOINT Spine
		{
			OFFSET 0.000000 7.722015 1.166203
			CHANNELS 3 Zrotation Yrotation Xrotation
			JOINT Spine1
			{
				OFFSET 0.000000 12.024086 0.248766
				CHANNELS 3 Zrotation Yrotation Xrotation
				JOINT Spine2
				{
					OFFSET -0.000000 11.503036 -0.491240
					CHANNELS 3 Zrotation Yrotation Xrotation
					JOINT Neck_virtual
					{
						OFFSET 0.000000 0.000000 0.000000
						CHANNELS 3 Zrotation Yrotation Xrotation
						JOINT Neck
						{
							OFFSET 0.000000 18.430687 -3.123054
							CHANNELS 3 Zrotation Yrotation Xrotation
							JOINT Head
							{
								OFFSET -0.000000 9.051071 1.034021
								CHANNELS 3 Zrotation Yrotation Xrotation
								End Site
								{
									OFFSET 0.000000 0.000000 0.000000
								}
							}
						}
					}
					JOINT LeftShoulder_virtual
					{
						OFFSET 0.000000 0.000000 0.000000
						CHANNELS 3 Zrotation Yrotation Xrotation
						JOINT LeftShoulder
						{
							OFFSET 6.197824 13.665230 -4.064723
							CHANNELS 3 Zrotation Yrotation Xrotation
							JOINT LeftArm
							{
								OFFSET 7.778132 -0.187073 -1.709282
								CHANNELS 3 Zrotation Yrotation Xrotation
								JOINT LeftForeArm
								{
									OFFSET 21.954697 0.000000 -2.041093
									CHANNELS 3 Zrotation Yrotation Xrotation
									JOINT LeftHand
									{
										OFFSET 22.992908 0.000000 -0.870901
										CHANNELS 3 Zrotation Yrotation Xrotation
										End Site
										{
											OFFSET 0.000000 0.000000 0.000000
										}
									}
								}
							}
						}
					}
					JOINT RightShoulder_virtual
					{
						OFFSET 0.000000 0.000000 0.000000
						CHANNELS 3 Zrotation Yrotation Xrotation
						JOINT RightShoulder
						{
							OFFSET -6.197824 13.665230 -4.064723
							CHANNELS 3 Zrotation Yrotation Xrotation
							JOINT RightArm
							{
								OFFSET -7.778132 -0.187073 -1.709282
								CHANNELS 3 Zrotation Yrotation Xrotation
								JOINT RightForeArm
								{
									OFFSET -21.954697 0.000000 -2.041093
									CHANNELS 3 Zrotation Yrotation Xrotation
									JOINT RightHand
									{
										OFFSET -22.992908 0.000000 -0.870901
										CHANNELS 3 Zrotation Yrotation Xrotation
										End Site
										{
											OFFSET 0.000000 0.000000 0.000000
										}
									}
								}
							}
						}
					}
				}
			}
		}
	}
}
MOTION
Frames: 4
Frame Time: 0.033333
7.245279 80.748444 23.550283 179.907306 2.214831 179.987711 -2.405329 -1.875759 13.285101 1.652149 -3.064927 -22.655652 6.052913 3.232580 27.427584 -1.943290 -6.850600 -13.539986 0.000000 0.000000 0.000000 1.424311 -2.958269 13.685942 -5.808372 6.449788 -25.463101 0.584541 7.307571 32.917697 11.751414 4.626389 -15.292703 0.000000 0.000000 0.000000 3.961526 0.024035 0.399860 -2.861904 0.271281 -2.468080 0.391740 -2.246837 6.171649 0.023670 0.003541 0.023999 0.108323 -0.977604 7.033019 -0.383694 2.894161 -2.328033 0.000000 0.000000 0.000000 1.316635 -0.247126 4.117683 -12.649449 -5.479109 1.529652 -53.107108 -8.743910 3.240665 1.076240 -25.837182 4.831949 0.000000 0.000000 0.000000 -2.377820 1.013480 3.628656 28.969199 2.022333 7.043437 43.667698 6.089250 6.299534 -2.246875 21.738696 -0.883789 0.000000 0.000000 0.000000 
7.242057 80.744789 23.542608 -179.997806 2.196620 179.972479 -2.208613 -1.708294 13.281468 1.524161 -3.187308 -22.729048 6.059821 3.328849 27.720668 -2.048527 -6.979367 -13.640913 0.000000 0.000000 0.000000 1.446653 -2.846809 13.720793 -5.718743 6.465326 -25.465718 0.616427 7.201893 33.198285 11.870608 4.730753 -15.351839 0.000000 0.000000 0.000000 3.992053 0.024971 0.436455 -2.813037 0.292087 -2.474426 0.445269 -2.240547 6.180511 0.045504 0.015695 0.003970 0.084526 -1.009243 7.043308 -0.366700 2.889664 -2.312561 0.000000 0.000000 0.000000 1.293354 -0.329998 4.113941 -12.721894 -5.486214 1.531290 -53.081140 -8.732861 3.287652 1.098023 -25.854450 4.815454 0.000000 0.000000 0.000000 -2.420571 1.021147 3.579679 28.965538 2.002511 7.079962 43.754728 6.019964 6.306826 -2.354734 21.788013 -0.979679 0.000000 0.000000 0.000000 
7.235358 80.742905 23.532982 -179.954502 2.164389 179.979351 -2.268083 -1.869138 13.292159 1.540018 -2.829803 -22.739028 6.086410 3.214287 27.803200 -2.103704 -7.021731 -13.702679 0.000000 0.000000 0.000000 1.467906 -2.877202 13.763728 -5.685996 6.477098 -25.512495 0.608988 7.234739 33.217051 11.903215 4.691442 -15.345900 0.000000 0.000000 0.000000 4.025815 -0.056317 0.488211 -2.739899 0.219796 -2.507145 0.419991 -2.325516 6.183131 0.010610 -0.045840 -0.018402 0.098478 -1.005531 7.078554 -0.449854 2.974423 -2.295215 0.000000 0.000000 0.000000 1.323468 -0.205938 4.113936 -12.772080 -5.376149 1.512757 -53.149469 -8.794838 3.380344 1.038159 -25.633615 4.867870 0.000000 0.000000 0.000000 -2.377226 1.103932 3.654359 28.953428 2.047173 7.006222 43.792987 6.072775 6.377896 -2.321736 21.959712 -0.919449 0.000000 0.000000 0.000000 
7.239813 80.743340 23.521276 179.991754 2.301623 -179.982287 -2.244330 -1.986019 13.296629 1.433595 -2.864338 -22.758443 6.152102 3.395673 27.772058 -2.128519 -6.967767 -13.673404 0.000000 0.000000 0.000000 1.436370 -2.883085 13.767678 -5.694202 6.507027 -25.597491 0.606972 7.300793 33.244091 11.974692 4.702589 -15.314889 0.000000 0.000000 0.000000 3.981792 -0.019211 0.477349 -2.683806 0.275029 -2.466404 0.398383 -2.308703 6.195996 -0.009312 -0.019481 0.006673 0.136895 -0.929110 7.062831 -0.445693 2.942332 -2.324429 0.000000 0.000000 0.000000 1.347257 -0.258792 4.135094 -12.773833 -5.389854 1.507913 -53.241331 -8.922519 3.627779 1.032157 -25.362581 4.756420 0.000000 0.000000 0.000000 -2.354519 1.048791 3.606765 28.977317 1.904231 6.949000 43.908028 6.099469 6.443265 -2.320001 22.136798 -0.851537 0.000000 0.000000 0.000000 
